<svg width="40" height="41" viewBox="0 0 40 41" fill="none" xmlns="http://www.w3.org/2000/svg">
<path d="M38.4041 24.015H37.7906V20.6937V18.4885C37.7906 17.6135 37.3551 16.8388 36.69 16.3681V15.6157C36.69 14.5241 35.8021 13.6361 34.7105 13.6361H34.2524L36.0052 11.064C36.5927 10.2019 36.3693 9.0224 35.5072 8.43479L23.6131 0.329182C23.1955 0.0445032 22.6921 -0.0605596 22.1953 0.0336926C21.6987 0.127785 21.2685 0.40958 20.9839 0.827269L10.7178 15.8918H7.86097L8.5502 8.91462C8.55797 8.83598 8.60906 8.76783 8.68033 8.74101C9.56832 8.4062 10.3379 7.78095 10.8472 6.98049C10.8873 6.91747 10.963 6.88143 11.0413 6.88936L15.5221 7.33203C15.8433 7.36318 16.1291 7.12919 16.1608 6.80808C16.1926 6.48696 15.958 6.201 15.6369 6.16929L11.1561 5.72662C10.636 5.67569 10.14 5.91537 9.86132 6.35323C9.48688 6.94181 8.92104 7.40146 8.26817 7.64762C7.77673 7.83292 7.43928 8.27431 7.38738 8.79971L6.68686 15.8918H5.94189L7.03192 4.85665C7.07115 4.45946 7.42566 4.16766 7.82333 4.20745L16.8781 5.10193C17.1992 5.13292 17.4852 4.89909 17.5169 4.57798C17.5486 4.25686 17.3141 3.9709 16.9929 3.93919L7.93816 3.04472C6.90003 2.9423 5.97168 3.70344 5.8691 4.74174L4.99048 13.636H3.49422C2.40275 13.636 1.51468 14.524 1.51468 15.6156V16.1289C0.621728 16.54 0 17.4426 0 18.4884V20.6937V36.1981V38.4034C0 39.8352 1.16482 41 2.5967 41H35.1939C36.6257 41 37.7906 39.8352 37.7906 38.4034V36.1981V32.8769H38.4041C39.1283 32.8769 39.7175 32.2878 39.7175 31.5637V25.3284C39.7176 24.6041 39.1283 24.015 38.4041 24.015ZM34.7105 14.8045C35.1578 14.8045 35.5216 15.1683 35.5216 15.6157V15.9133C35.4142 15.8997 35.305 15.8919 35.1939 15.8919H32.7151L33.4561 14.8045H34.7105V14.8045ZM21.9494 1.48519C22.0583 1.32544 22.2229 1.21765 22.4128 1.18162C22.4582 1.17305 22.5038 1.16872 22.549 1.16872C22.6929 1.16872 22.8335 1.2118 22.9551 1.29461L34.8492 9.40013C35.179 9.62491 35.2645 10.0761 35.0398 10.4058L31.3013 15.8917H30.4041L32.237 13.2021C32.5342 12.7659 32.5587 12.2108 32.3007 11.7533C31.9578 11.1455 31.8188 10.4299 31.9093 9.73806C31.9766 9.2234 31.7501 8.72099 31.3183 8.42678L25.1524 4.22491C24.7206 3.93062 24.1701 3.90364 23.7158 4.15452C23.1052 4.49165 22.3882 4.62402 21.6971 4.52729C21.1846 4.45538 20.6648 4.6868 20.372 5.11642L13.0289 15.8918H12.1317L21.9494 1.48519ZM22.2067 11.4062C19.6625 11.4062 17.5741 13.39 17.4039 15.8918H14.4427L21.3373 5.77443C21.3374 5.77443 21.3374 5.77443 21.3374 5.77443C21.3766 5.71685 21.4415 5.68258 21.5082 5.68258C21.5171 5.68258 21.526 5.68322 21.5349 5.68442C22.4749 5.81591 23.4498 5.63605 24.2804 5.17744C24.3457 5.14125 24.4297 5.14645 24.4944 5.1905L30.6603 9.39245C30.7248 9.43649 30.7603 9.51272 30.7507 9.58672C30.6276 10.5276 30.8168 11.5008 31.2831 12.3274C31.3205 12.3938 31.3159 12.4788 31.2715 12.5441L28.9903 15.8917H27.0097C26.8394 13.39 24.751 11.4062 22.2067 11.4062ZM25.8381 15.8918H18.5754C18.7427 14.0349 20.307 12.5747 22.2067 12.5747C24.1065 12.5746 25.6708 14.0349 25.8381 15.8918ZM2.6831 15.6156C2.6831 15.1683 3.0469 14.8044 3.49422 14.8044H4.87509L4.7677 15.8918H2.6831V15.6156ZM1.16842 18.4884C1.16842 17.7009 1.80913 17.0602 2.5967 17.0602H35.1939C35.9815 17.0602 36.6221 17.7009 36.6221 18.4884V20.1095H1.16842V18.4884ZM36.6221 35.614H8.05964C7.73693 35.614 7.47547 35.8755 7.47547 36.1982C7.47547 36.5208 7.73701 36.7824 8.05964 36.7824H36.6221V38.4035C36.6221 39.191 35.9815 39.8317 35.1939 39.8317H2.5967C1.80913 39.8317 1.16842 39.191 1.16842 38.4035V36.7824H4.31886C4.64158 36.7824 4.90303 36.5208 4.90303 36.1982C4.90303 35.8755 4.6415 35.614 4.31886 35.614H1.16842V21.2779H36.6221V24.015H31.0674H31.0673C29.3172 24.015 27.8011 25.0352 27.0816 26.5119C27.0792 26.5169 27.0765 26.5217 27.074 26.5266C27.0679 26.5392 27.0626 26.5523 27.0567 26.5649C26.971 26.7469 26.8965 26.9354 26.8359 27.1298C26.8358 27.1304 26.8356 27.1308 26.8354 27.1314C26.7061 27.5469 26.6364 27.9884 26.6364 28.446C26.6364 30.8892 28.6241 32.8769 31.0673 32.8769H31.0673H36.6221V35.614H36.6221ZM38.5491 31.5636C38.5491 31.6435 38.4841 31.7085 38.4041 31.7085H37.2063H31.0674C29.8306 31.7085 28.7523 31.0167 28.1992 29.9998C28.174 29.9536 28.15 29.9067 28.127 29.8592C28.0811 29.7641 28.0397 29.6665 28.0031 29.5666C27.8749 29.217 27.8049 28.8395 27.8049 28.446C27.8049 28.0525 27.8749 27.675 28.0031 27.3253C28.0398 27.2255 28.0812 27.1279 28.127 27.0327C28.15 26.9853 28.174 26.9383 28.1992 26.8921C28.7523 25.8752 29.8306 25.1834 31.0674 25.1834H37.2063H38.4041C38.484 25.1834 38.5491 25.2484 38.5491 25.3284V31.5636Z" fill="black"/>
</svg>
