<svg width="20" height="20" viewBox="0 0 20 20" fill="none" xmlns="http://www.w3.org/2000/svg">
<path fill-rule="evenodd" clip-rule="evenodd" d="M2.0536 3.92978L0.533712 2.40989C0.490009 2.36608 0.434281 2.33623 0.373593 2.32412C0.312905 2.31202 0.249989 2.31821 0.192822 2.34191C0.135655 2.3656 0.086812 2.40574 0.0524841 2.45723C0.0181562 2.50872 -0.00011022 2.56924 5.00371e-07 2.63113V7.1883C5.00371e-07 7.36079 0.13999 7.50078 0.312478 7.50078H4.86965C4.93154 7.50089 4.99206 7.48262 5.04355 7.44829C5.09504 7.41397 5.13517 7.36512 5.15887 7.30796C5.18257 7.25079 5.18876 7.18787 5.17665 7.12718C5.16455 7.0665 5.1347 7.01077 5.09089 6.96707L3.39351 5.26969C4.49997 3.72436 6.1132 2.61585 7.9525 2.13704C9.79181 1.65823 11.7408 1.83943 13.4603 2.64909C15.1798 3.45876 16.561 4.84566 17.3637 6.56847C18.1663 8.29129 18.3395 10.241 17.8532 12.0783C17.3669 13.9156 16.2518 15.5243 14.7019 16.6245C13.1521 17.7246 11.2656 18.2465 9.37068 18.0995C7.47577 17.9524 5.69239 17.1457 4.33082 15.8197C2.96925 14.4936 2.11567 12.7322 1.91861 10.8418C1.89309 10.5943 1.7703 10.3671 1.57727 10.2102C1.38424 10.0533 1.13677 9.97945 0.889312 10.005C0.641849 10.0305 0.414662 10.1533 0.257729 10.3463C0.100796 10.5393 0.0269715 10.7868 0.0524967 11.0343C0.292965 13.3482 1.3326 15.5058 2.99242 17.1358C4.65224 18.7658 6.82839 19.7661 9.14626 19.9646C11.4641 20.1631 13.7787 19.5473 15.6914 18.2232C17.6042 16.8991 18.9955 14.9496 19.6259 12.7103C20.2562 10.471 20.0862 8.08197 19.145 5.95452C18.2038 3.82707 16.5503 2.09431 14.4693 1.05453C12.3883 0.0147444 10.0098 -0.266998 7.74344 0.257803C5.47706 0.782603 3.4658 2.08111 2.0536 3.92978ZM9.68681 5.00096C9.93543 5.00096 10.1739 5.09972 10.3497 5.27552C10.5255 5.45133 10.6242 5.68977 10.6242 5.93839V9.67812L13.1591 10.693C13.3824 10.7904 13.5591 10.971 13.6517 11.1964C13.7442 11.4218 13.7453 11.6744 13.6548 11.9006C13.5643 12.1269 13.3892 12.309 13.1667 12.4083C12.9442 12.5077 12.6917 12.5165 12.4629 12.4329L9.33808 11.183C9.16431 11.1134 9.01536 10.9933 8.91044 10.8382C8.80552 10.6832 8.74942 10.5003 8.74937 10.3131V5.93839C8.74937 5.68977 8.84814 5.45133 9.02394 5.27552C9.19974 5.09972 9.43818 5.00096 9.68681 5.00096Z" fill="#515151"/>
</svg>
