<svg width="24" height="24" viewBox="0 0 24 24" fill="none" xmlns="http://www.w3.org/2000/svg">
<path d="M16.8 14.25C15.2625 14.25 14.5232 15 12 15C9.47679 15 8.74286 14.25 7.2 14.25C3.225 14.25 0 17.0719 0 20.55V21.75C0 22.9922 1.15179 24 2.57143 24H21.4286C22.8482 24 24 22.9922 24 21.75V20.55C24 17.0719 20.775 14.25 16.8 14.25ZM21.4286 21.75H2.57143V20.55C2.57143 18.3188 4.65 16.5 7.2 16.5C7.98214 16.5 9.25179 17.25 12 17.25C14.7696 17.25 16.0125 16.5 16.8 16.5C19.35 16.5 21.4286 18.3188 21.4286 20.55V21.75ZM12 13.5C16.2589 13.5 19.7143 10.4766 19.7143 6.75C19.7143 3.02344 16.2589 0 12 0C7.74107 0 4.28571 3.02344 4.28571 6.75C4.28571 10.4766 7.74107 13.5 12 13.5ZM12 2.25C14.8339 2.25 17.1429 4.27031 17.1429 6.75C17.1429 9.22969 14.8339 11.25 12 11.25C9.16607 11.25 6.85714 9.22969 6.85714 6.75C6.85714 4.27031 9.16607 2.25 12 2.25Z" fill="#1F9C00"/>
</svg>
