<svg width="20" height="20" viewBox="0 0 20 20" fill="none" xmlns="http://www.w3.org/2000/svg">
<path d="M8.6 3.99601L9.09091 3.40586V6.99676C9.09091 7.26204 9.18669 7.51646 9.35718 7.70404C9.52766 7.89162 9.75889 7.99701 10 7.99701C10.2411 7.99701 10.4723 7.89162 10.6428 7.70404C10.8133 7.51646 10.9091 7.26204 10.9091 6.99676V3.40586L11.4 3.956C11.4825 4.05855 11.5833 4.14136 11.6961 4.19929C11.8089 4.25723 11.9313 4.28906 12.0557 4.29281C12.1802 4.29656 12.304 4.27215 12.4195 4.2211C12.535 4.17005 12.6398 4.09343 12.7273 3.99601C12.8125 3.90302 12.8801 3.7924 12.9263 3.67051C12.9724 3.54862 12.9962 3.41788 12.9962 3.28583C12.9962 3.15379 12.9724 3.02305 12.9263 2.90116C12.8801 2.77927 12.8125 2.66864 12.7273 2.57566L10.6455 0.285085C10.559 0.194021 10.457 0.122638 10.3455 0.0750322C10.1241 -0.0250107 9.87587 -0.0250107 9.65455 0.0750322C9.54295 0.122638 9.441 0.194021 9.35455 0.285085L7.27273 2.53565C7.09672 2.7293 6.99784 2.99196 6.99784 3.26583C6.99784 3.5397 7.09672 3.80235 7.27273 3.99601C7.44873 4.18967 7.68745 4.29846 7.93636 4.29846C8.18528 4.29846 8.42399 4.18967 8.6 3.99601ZM10 9.99751C9.4606 9.99751 8.93331 10.1735 8.48481 10.5032C8.03631 10.8329 7.68675 11.3016 7.48033 11.8499C7.27391 12.3982 7.2199 13.0016 7.32513 13.5837C7.43036 14.1658 7.69011 14.7004 8.07153 15.1201C8.45294 15.5398 8.9389 15.8256 9.46794 15.9413C9.99697 16.0571 10.5453 15.9977 11.0437 15.7706C11.542 15.5435 11.968 15.1588 12.2676 14.6654C12.5673 14.1719 12.7273 13.5917 12.7273 12.9983C12.7273 12.2024 12.4399 11.4392 11.9285 10.8764C11.417 10.3137 10.7233 9.99751 10 9.99751ZM10 13.9985C9.8202 13.9985 9.64443 13.9398 9.49494 13.8299C9.34544 13.72 9.22892 13.5638 9.16011 13.381C9.0913 13.1983 9.0733 12.9971 9.10838 12.8031C9.14345 12.6091 9.23004 12.4309 9.35718 12.291C9.48431 12.1511 9.6463 12.0558 9.82265 12.0172C9.99899 11.9786 10.1818 11.9984 10.3479 12.0741C10.514 12.1499 10.656 12.2781 10.7559 12.4425C10.8558 12.607 10.9091 12.8004 10.9091 12.9983C10.9091 13.2635 10.8133 13.518 10.6428 13.7055C10.4723 13.8931 10.2411 13.9985 10 13.9985ZM3.63636 12.9983C3.63636 13.1961 3.68968 13.3895 3.78957 13.554C3.88947 13.7185 4.03145 13.8467 4.19756 13.9224C4.36368 13.9981 4.54646 14.0179 4.72281 13.9793C4.89916 13.9407 5.06114 13.8454 5.18828 13.7055C5.31542 13.5656 5.402 13.3874 5.43708 13.1934C5.47216 12.9994 5.45415 12.7982 5.38535 12.6155C5.31654 12.4327 5.20002 12.2765 5.05052 12.1666C4.90102 12.0567 4.72526 11.998 4.54545 11.998C4.30435 11.998 4.07312 12.1034 3.90263 12.291C3.73214 12.4786 3.63636 12.733 3.63636 12.9983ZM16.3636 12.9983C16.3636 12.8004 16.3103 12.607 16.2104 12.4425C16.1105 12.2781 15.9686 12.1499 15.8024 12.0741C15.6363 11.9984 15.4535 11.9786 15.2772 12.0172C15.1008 12.0558 14.9389 12.1511 14.8117 12.291C14.6846 12.4309 14.598 12.6091 14.5629 12.8031C14.5278 12.9971 14.5458 13.1983 14.6147 13.381C14.6835 13.5638 14.8 13.72 14.9495 13.8299C15.099 13.9398 15.2747 13.9985 15.4545 13.9985C15.6957 13.9985 15.9269 13.8931 16.0974 13.7055C16.2679 13.518 16.3636 13.2635 16.3636 12.9983ZM17.2727 5.99651H13.6364C13.3953 5.99651 13.164 6.10189 12.9935 6.28948C12.8231 6.47706 12.7273 6.73148 12.7273 6.99676C12.7273 7.26204 12.8231 7.51646 12.9935 7.70404C13.164 7.89162 13.3953 7.99701 13.6364 7.99701H17.2727C17.5138 7.99701 17.7451 8.10239 17.9156 8.28997C18.086 8.47756 18.1818 8.73197 18.1818 8.99726V16.9993C18.1818 17.2645 18.086 17.519 17.9156 17.7065C17.7451 17.8941 17.5138 17.9995 17.2727 17.9995H2.72727C2.48617 17.9995 2.25494 17.8941 2.08445 17.7065C1.91396 17.519 1.81818 17.2645 1.81818 16.9993V8.99726C1.81818 8.73197 1.91396 8.47756 2.08445 8.28997C2.25494 8.10239 2.48617 7.99701 2.72727 7.99701H6.36364C6.60474 7.99701 6.83597 7.89162 7.00646 7.70404C7.17695 7.51646 7.27273 7.26204 7.27273 6.99676C7.27273 6.73148 7.17695 6.47706 7.00646 6.28948C6.83597 6.10189 6.60474 5.99651 6.36364 5.99651H2.72727C2.00396 5.99651 1.31026 6.31266 0.7988 6.87541C0.287337 7.43816 0 8.20141 0 8.99726V16.9993C0 17.7951 0.287337 18.5584 0.7988 19.1211C1.31026 19.6839 2.00396 20 2.72727 20H17.2727C17.996 20 18.6897 19.6839 19.2012 19.1211C19.7127 18.5584 20 17.7951 20 16.9993V8.99726C20 8.20141 19.7127 7.43816 19.2012 6.87541C18.6897 6.31266 17.996 5.99651 17.2727 5.99651Z" fill="#515151"/>
</svg>
