<svg width="20" height="20" viewBox="0 0 20 20" fill="none" xmlns="http://www.w3.org/2000/svg">
<path d="M17.7778 17.7778H2.22222V2.22222H17.7778V17.7778ZM17.7778 0H2.22222C1.63285 0 1.06762 0.234126 0.650874 0.650874C0.234126 1.06762 0 1.63285 0 2.22222V17.7778C0 18.3671 0.234126 18.9324 0.650874 19.3491C1.06762 19.7659 1.63285 20 2.22222 20H17.7778C18.3671 20 18.9324 19.7659 19.3491 19.3491C19.7659 18.9324 20 18.3671 20 17.7778V2.22222C20 1.63285 19.7659 1.06762 19.3491 0.650874C18.9324 0.234126 18.3671 0 17.7778 0ZM15 14.7222C15 13.0556 11.6667 12.2222 10 12.2222C8.33333 12.2222 5 13.0556 5 14.7222V15.5556H15V14.7222ZM10 10.2778C10.663 10.2778 11.2989 10.0144 11.7678 9.54554C12.2366 9.0767 12.5 8.44082 12.5 7.77778C12.5 7.11474 12.2366 6.47885 11.7678 6.01001C11.2989 5.54117 10.663 5.27778 10 5.27778C9.33696 5.27778 8.70107 5.54117 8.23223 6.01001C7.76339 6.47885 7.5 7.11474 7.5 7.77778C7.5 8.44082 7.76339 9.0767 8.23223 9.54554C8.70107 10.0144 9.33696 10.2778 10 10.2778Z" fill="#515151"/>
</svg>
