<svg width="24" height="24" viewBox="0 0 24 24" fill="none" xmlns="http://www.w3.org/2000/svg">
<path d="M12 13.2C11.5433 13.1957 11.096 13.3035 10.7182 13.5088C10.3404 13.714 10.0502 14.007 9.88682 14.3482C9.72342 14.6893 9.69459 15.0624 9.80422 15.4171C9.91385 15.7718 10.1567 16.0911 10.5 16.332V18C10.5 18.3183 10.658 18.6235 10.9393 18.8485C11.2206 19.0736 11.6022 19.2 12 19.2C12.3978 19.2 12.7794 19.0736 13.0607 18.8485C13.342 18.6235 13.5 18.3183 13.5 18V16.332C13.8433 16.0911 14.0861 15.7718 14.1958 15.4171C14.3054 15.0624 14.2766 14.6893 14.1132 14.3482C13.9498 14.007 13.6596 13.714 13.2818 13.5088C12.904 13.3035 12.4567 13.1957 12 13.2ZM19.5 8.4V6C19.5 4.4087 18.7098 2.88258 17.3033 1.75736C15.8968 0.632141 13.9891 0 12 0C10.0109 0 8.10322 0.632141 6.6967 1.75736C5.29018 2.88258 4.5 4.4087 4.5 6V8.4C3.30653 8.4 2.16193 8.77928 1.31802 9.45442C0.474106 10.1295 0 11.0452 0 12V20.4C0 21.3548 0.474106 22.2705 1.31802 22.9456C2.16193 23.6207 3.30653 24 4.5 24H19.5C20.6935 24 21.8381 23.6207 22.682 22.9456C23.5259 22.2705 24 21.3548 24 20.4V12C24 11.0452 23.5259 10.1295 22.682 9.45442C21.8381 8.77928 20.6935 8.4 19.5 8.4ZM7.5 6C7.5 5.04522 7.97411 4.12955 8.81802 3.45442C9.66193 2.77928 10.8065 2.4 12 2.4C13.1935 2.4 14.3381 2.77928 15.182 3.45442C16.0259 4.12955 16.5 5.04522 16.5 6V8.4H7.5V6ZM21 20.4C21 20.7183 20.842 21.0235 20.5607 21.2485C20.2794 21.4736 19.8978 21.6 19.5 21.6H4.5C4.10218 21.6 3.72064 21.4736 3.43934 21.2485C3.15804 21.0235 3 20.7183 3 20.4V12C3 11.6817 3.15804 11.3765 3.43934 11.1515C3.72064 10.9264 4.10218 10.8 4.5 10.8H19.5C19.8978 10.8 20.2794 10.9264 20.5607 11.1515C20.842 11.3765 21 11.6817 21 12V20.4Z" fill="#1F9C00"/>
</svg>
