<svg width="9" height="14" viewBox="0 0 9 14" fill="none" xmlns="http://www.w3.org/2000/svg">
<path d="M8.90863 9.52846C8.91723 9.21739 8.8161 8.95169 8.60522 8.73135C8.39434 8.51101 8.13397 8.40516 7.8241 8.4138C7.52285 8.39652 7.26463 8.50453 7.04944 8.73783L5.5905 10.1895L5.5905 1.07781C5.59911 0.766746 5.49367 0.507524 5.27418 0.300145C5.0547 0.0927677 4.78572 -0.00660038 4.46725 0.00203991C4.16599 -0.0152416 3.90347 0.0798063 3.67968 0.287184C3.45589 0.494562 3.33969 0.753784 3.33108 1.06485L3.33108 10.1765L1.88505 8.72487C1.67847 8.50885 1.42025 8.40084 1.11039 8.40084C0.791918 8.40084 0.527243 8.50669 0.316362 8.71839C0.105483 8.93009 4.29153e-05 9.19147 4.29153e-05 9.50254C0.0172577 9.82225 0.133457 10.0728 0.34864 10.2543L3.64094 13.6501C3.85613 13.8575 4.12726 13.9741 4.45434 14C4.78141 13.9828 5.05254 13.8618 5.26773 13.6371L8.57294 10.2672C8.79673 10.0771 8.90863 9.83089 8.90863 9.52846Z" fill="#FF0000"/>
</svg>
