<svg width="9" height="14" viewBox="0 0 9 14" fill="none" xmlns="http://www.w3.org/2000/svg">
<path d="M0.000506313 4.47159C-0.00810101 4.78265 0.0930351 5.04836 0.303915 5.26869C0.514794 5.48903 0.775166 5.59488 1.08503 5.58624C1.38629 5.60352 1.64451 5.49551 1.85969 5.26221L3.31863 3.81057V12.9222C3.31002 13.2333 3.41546 13.4925 3.63495 13.6999C3.85444 13.9073 4.12342 14.0066 4.44189 13.998C4.74314 14.0153 5.00567 13.9202 5.22946 13.7129C5.45325 13.5055 5.56945 13.2463 5.57805 12.9352V3.82353L7.02409 5.27517C7.23066 5.49119 7.48888 5.5992 7.79875 5.5992C8.11722 5.5992 8.38189 5.49335 8.59277 5.28165C8.80365 5.06996 8.90909 4.80857 8.90909 4.49751C8.89188 4.1778 8.77568 3.92722 8.56049 3.74576L5.26819 0.34995C5.05301 0.142572 4.78188 0.0259222 4.4548 0C4.12772 0.0172815 3.85659 0.138252 3.64141 0.362911L0.336192 3.7328C0.112402 3.9229 0.000506313 4.16916 0.000506313 4.47159Z" fill="#1F9C00"/>
</svg>
