<svg width="18" height="20" viewBox="0 0 18 20" fill="none" xmlns="http://www.w3.org/2000/svg">
<path d="M6.29767 2.02297C6.29767 2.58795 5.83966 3.04595 5.27469 3.04595C4.70971 3.04595 4.25171 2.58795 4.25171 2.02297C4.25171 1.458 4.70971 1 5.27469 1C5.83966 1 6.29767 1.458 6.29767 2.02297Z" stroke="#515151" stroke-width="2"/>
<path d="M9.26153 5.82761V6.6182H8.68865H7.9989H6.9989V7.6182V11.0459H6.98727V12.0459V19H6.61944V12.0459V11.0459H5.61944H4.92983H3.92983V12.0459V19H3.56199V13.5533H3.56491V12.5533V7.6182V6.6182H2.56491H1.87519H1.18872V5.82761H9.26153Z" stroke="#515151" stroke-width="2"/>
<mask id="path-3-inside-1_695_172" fill="white">
<path d="M11.7531 20H17.2457V13.8549H11.7531V20ZM15.6578 14.6941H16.2018V19.1608H15.6578V14.6941ZM14.2274 14.6941H14.7714V19.1608H14.2274V14.6941ZM12.797 14.6941H13.341V19.1608H12.797V14.6941Z"/>
</mask>
<path d="M11.7531 20H9.75305V22H11.7531V20ZM17.2457 20V22H19.2457V20H17.2457ZM17.2457 13.8549H19.2457V11.8549H17.2457V13.8549ZM11.7531 13.8549V11.8549H9.75305V13.8549H11.7531ZM15.6578 14.6941V12.6941H13.6578V14.6941H15.6578ZM16.2018 14.6941H18.2018V12.6941H16.2018V14.6941ZM16.2018 19.1608V21.1608H18.2018V19.1608H16.2018ZM15.6578 19.1608H13.6578V21.1608H15.6578V19.1608ZM14.2274 14.6941V12.6941H12.2274V14.6941H14.2274ZM14.7714 14.6941H16.7714V12.6941H14.7714V14.6941ZM14.7714 19.1608V21.1608H16.7714V19.1608H14.7714ZM14.2274 19.1608H12.2274V21.1608H14.2274V19.1608ZM12.797 14.6941V12.6941H10.797V14.6941H12.797ZM13.341 14.6941H15.341V12.6941H13.341V14.6941ZM13.341 19.1608V21.1608H15.341V19.1608H13.341ZM12.797 19.1608H10.797V21.1608H12.797V19.1608ZM11.7531 22H17.2457V18H11.7531V22ZM19.2457 20V13.8549H15.2457V20H19.2457ZM17.2457 11.8549H11.7531V15.8549H17.2457V11.8549ZM9.75305 13.8549V20H13.7531V13.8549H9.75305ZM15.6578 16.6941H16.2018V12.6941H15.6578V16.6941ZM14.2018 14.6941V19.1608H18.2018V14.6941H14.2018ZM16.2018 17.1608H15.6578V21.1608H16.2018V17.1608ZM17.6578 19.1608V14.6941H13.6578V19.1608H17.6578ZM14.2274 16.6941H14.7714V12.6941H14.2274V16.6941ZM12.7714 14.6941V19.1608H16.7714V14.6941H12.7714ZM14.7714 17.1608H14.2274V21.1608H14.7714V17.1608ZM16.2274 19.1608V14.6941H12.2274V19.1608H16.2274ZM12.797 16.6941H13.341V12.6941H12.797V16.6941ZM11.341 14.6941V19.1608H15.341V14.6941H11.341ZM13.341 17.1608H12.797V21.1608H13.341V17.1608ZM14.797 19.1608V14.6941H10.797V19.1608H14.797Z" fill="#515151" mask="url(#path-3-inside-1_695_172)"/>
<mask id="path-5-inside-2_695_172" fill="white">
<path d="M14.8548 9.41747L14.2655 10.4307L13.0634 9.73165L12.4977 10.7043L17.2457 13.4658L17.8114 12.4931L16.681 11.8356L17.2703 10.8223L14.8548 9.41747ZM14.7356 10.7043L15.0515 10.1612L16.5267 11.0191L16.2107 11.5622L14.7356 10.7043Z"/>
</mask>
<path d="M14.8548 9.41747L15.8603 7.68859L14.1314 6.68315L13.1259 8.41195L14.8548 9.41747ZM14.2655 10.4307L13.26 12.1596L14.9888 13.165L15.9943 11.4362L14.2655 10.4307ZM13.0634 9.73165L14.0688 8.00275L12.34 6.99735L11.3345 8.72614L13.0634 9.73165ZM12.4977 10.7043L10.7688 9.69882L9.76331 11.4277L11.4922 12.4332L12.4977 10.7043ZM17.2457 13.4658L16.2402 15.1946L17.9691 16.2001L18.9746 14.4713L17.2457 13.4658ZM17.8114 12.4931L19.5403 13.4986L20.5458 11.7697L18.8169 10.7642L17.8114 12.4931ZM16.681 11.8356L14.952 10.8302L13.9466 12.5591L15.6755 13.5645L16.681 11.8356ZM17.2703 10.8223L18.9992 11.8277L20.0046 10.0988L18.2758 9.09338L17.2703 10.8223ZM14.7356 10.7043L13.0068 9.69866L12.0012 11.4276L13.7301 12.4331L14.7356 10.7043ZM15.0515 10.1612L16.057 8.43232L14.3282 7.42691L13.3227 9.1556L15.0515 10.1612ZM16.5267 11.0191L18.2554 12.0249L19.2613 10.2959L17.5321 9.29024L16.5267 11.0191ZM16.2107 11.5622L15.2052 13.291L16.9338 14.2964L17.9394 12.5679L16.2107 11.5622ZM13.1259 8.41195L12.5366 9.42519L15.9943 11.4362L16.5836 10.423L13.1259 8.41195ZM15.2709 8.70182L14.0688 8.00275L12.058 11.4605L13.26 12.1596L15.2709 8.70182ZM11.3345 8.72614L10.7688 9.69882L14.2265 11.7098L14.7923 10.7372L11.3345 8.72614ZM11.4922 12.4332L16.2402 15.1946L18.2512 11.7369L13.5032 8.97547L11.4922 12.4332ZM18.9746 14.4713L19.5403 13.4986L16.0826 11.4876L15.5169 12.4603L18.9746 14.4713ZM18.8169 10.7642L17.6864 10.1068L15.6755 13.5645L16.806 14.222L18.8169 10.7642ZM18.4099 12.8411L18.9992 11.8277L15.5414 9.81684L14.952 10.8302L18.4099 12.8411ZM18.2758 9.09338L15.8603 7.68859L13.8493 11.1464L16.2648 12.5511L18.2758 9.09338ZM16.4644 11.7099L16.7803 11.1668L13.3227 9.1556L13.0068 9.69866L16.4644 11.7099ZM14.046 11.8901L15.5212 12.748L17.5321 9.29024L16.057 8.43232L14.046 11.8901ZM14.798 10.0133L14.482 10.5564L17.9394 12.5679L18.2554 12.0249L14.798 10.0133ZM17.2162 9.83332L15.7411 8.97541L13.7301 12.4331L15.2052 13.291L17.2162 9.83332Z" fill="#515151" mask="url(#path-5-inside-2_695_172)"/>
</svg>
