<svg width="20" height="20" viewBox="0 0 20 20" fill="none" xmlns="http://www.w3.org/2000/svg">
<path d="M10 4.17075V5.90981C10 6.347 10.675 6.56074 11.0625 6.24984L14.55 3.53925C14.8 3.34494 14.8 3.04377 14.55 2.84946L11.0625 0.138869C10.9744 0.071733 10.8627 0.0263727 10.7414 0.00850498C10.6202 -0.00936272 10.4949 0.00106176 10.3812 0.0384646C10.2676 0.0758674 10.1708 0.138575 10.1029 0.218684C10.0351 0.298793 9.99928 0.392718 10 0.488623V2.22768C4.475 2.22768 0 5.70578 0 9.99998C0 11.0104 0.25 11.9819 0.7125 12.866C1.05 13.5169 2.125 13.6918 2.7625 13.1963C3.1 12.934 3.2375 12.5357 3.05 12.1859C2.6875 11.5156 2.5 10.7675 2.5 9.99998C2.5 6.78419 5.8625 4.17075 10 4.17075ZM17.2375 6.80362C16.9 7.06594 16.7625 7.47398 16.95 7.81402C17.3 8.4941 17.5 9.23247 17.5 9.99998C17.5 13.2158 14.1375 15.8292 10 15.8292V14.0902C10 13.653 9.325 13.4392 8.9375 13.7501L5.45 16.4607C5.2 16.655 5.2 16.9562 5.45 17.1505L8.9375 19.8611C9.02486 19.9277 9.13543 19.9728 9.25551 19.991C9.3756 20.0092 9.4999 19.9996 9.61303 19.9634C9.72616 19.9272 9.82312 19.866 9.89191 19.7874C9.9607 19.7087 9.99828 19.6161 10 19.5211V17.7723C15.525 17.7723 20 14.2942 20 9.99998C20 8.98958 19.75 8.01804 19.2875 7.13394C18.95 6.48301 17.875 6.30814 17.2375 6.80362Z" fill="#515151"/>
</svg>
