<svg width="28" height="54" viewBox="0 0 28 54" fill="none" xmlns="http://www.w3.org/2000/svg">
<path d="M16.842 12.5466L17.383 12.0053L17.3314 11.3716L17.4774 11.2932L17.5927 11.4479L17.719 10.9098L18.1116 10.6305L18.7518 10.7895L19.1578 11.2825L18.9088 11.8334L18.2845 12.2695L17.5817 13.0374L16.842 12.5466Z" fill="#EAC5B0"/>
<path d="M16.7664 12.0346L11.2312 16.2876L7.67638 15.6635L7.15753 20.4588L11.579 19.6103L13.3921 18.9034L18.5259 12.9741L16.7664 12.0346Z" fill="#474EBB"/>
<path d="M9.68445 32.694L10.7958 52.7786C10.806 53.0408 10.9233 53.289 11.123 53.4711C11.3228 53.6531 11.5894 53.7548 11.8667 53.7546H24.9758C25.2532 53.7548 25.5198 53.6531 25.7195 53.4711C25.9193 53.289 26.0366 53.0408 26.0468 52.7786L27.1581 32.694H9.68445Z" fill="#D34E4E"/>
<path d="M28 30.4876H8.84216V32.694H28V30.4876Z" fill="#B24747"/>
<path d="M27.1581 30.4877H9.68445L11.0397 24.4704H25.8028L27.1581 30.4877Z" fill="#D34E4E"/>
<path d="M23.3273 29.2842H13.7254C13.4911 29.2842 13.2664 29.2002 13.1008 29.0506C12.9352 28.9011 12.8421 28.6982 12.8421 28.4867V27.2737C12.8421 27.1689 12.8649 27.0652 12.9093 26.9685C12.9537 26.8717 13.0188 26.7838 13.1008 26.7097C13.1828 26.6357 13.2802 26.5769 13.3873 26.5368C13.4945 26.4968 13.6094 26.4761 13.7254 26.4761H23.3273C23.4433 26.4761 23.5581 26.4968 23.6653 26.5368C23.7724 26.5769 23.8698 26.6357 23.9518 26.7097C24.0338 26.7838 24.0989 26.8717 24.1433 26.9685C24.1877 27.0652 24.2105 27.1689 24.2105 27.2737V28.4824C24.2105 28.6939 24.1175 28.8967 23.9518 29.0463C23.7862 29.1959 23.5615 29.2799 23.3273 29.2799" fill="#3B455A"/>
<path d="M21.0525 43.5251C21.0443 43.4866 21.0302 43.4494 21.0107 43.4146L20.8419 43.1239L21.0525 43.5251Z" fill="white"/>
<path d="M18.6572 40.5111L19.2795 40.6893L20.0846 40.9238L20.7069 41.1021C20.7591 41.1173 20.8139 41.1218 20.8679 41.1154C20.922 41.1089 20.974 41.0915 21.0206 41.0644C21.0672 41.0373 21.1074 41.0011 21.1386 40.9581C21.1697 40.9151 21.1911 40.8663 21.2014 40.8148L21.3451 40.1909C21.3963 39.9705 21.4791 39.6046 21.5303 39.3865L21.674 38.7627C21.7251 38.5422 21.5802 38.4683 21.3512 38.6008L20.9615 38.8283C20.8178 38.5868 20.6741 38.3487 20.6193 38.2608C20.4975 38.0614 20.2539 37.909 19.7765 37.909L17.8948 37.9195L18.6803 39.2786C18.7005 39.2988 18.717 39.3222 18.729 39.3478C18.7668 39.4217 18.9093 39.6785 19.0506 39.9341L18.6682 40.1593C18.4404 40.2918 18.4355 40.4513 18.6572 40.5111Z" fill="white"/>
<path d="M16.5549 38.3532C16.3557 38.6501 15.8477 39.4385 15.8477 39.4385C15.8206 39.4803 15.8024 39.5268 15.7943 39.5754C15.7861 39.6239 15.788 39.6735 15.8 39.7213C15.8121 39.7691 15.8338 39.8142 15.8642 39.8539C15.8945 39.8937 15.9328 39.9273 15.9768 39.9529L17.221 40.6653C17.3106 40.7156 17.4175 40.73 17.5182 40.7052C17.6189 40.6804 17.7052 40.6184 17.758 40.5329L18.5243 39.2992C18.5919 39.191 18.6715 39.1749 18.7367 39.2394L17.9559 37.909H17.507C17.1824 37.909 16.8131 37.9665 16.5524 38.3509" fill="white"/>
<path d="M14.3793 43.3352C14.5172 43.59 14.8988 44.2479 15.1782 44.7286L16.0472 43.3762C16.1495 43.2089 16.3385 42.901 16.4978 42.6452L16.9412 42.88C17.1671 42.9996 17.3074 42.9276 17.2515 42.7194L17.0934 42.1346L16.8937 41.3792L16.7367 40.7933C16.7251 40.7451 16.7028 40.6996 16.6712 40.6599C16.6397 40.6202 16.5995 40.5871 16.5534 40.5627C16.5073 40.5383 16.4562 40.5231 16.4034 40.5182C16.3506 40.5133 16.2973 40.5187 16.2469 40.5341L15.643 40.7169L14.8644 40.9539L14.2605 41.1366C14.0465 41.202 14.056 41.3526 14.2807 41.4689L14.6088 41.6428C14.4411 41.9518 14.2438 42.3162 14.1951 42.4181C14.1047 42.6064 14.1606 42.9332 14.3758 43.3297" fill="white"/>
<path d="M16.0246 43.3246L15.1574 44.6914C15.313 44.9624 15.4366 45.1795 15.4698 45.2389C15.5613 45.4068 15.6932 45.7359 16.5212 45.7314L17.7246 45.7247C17.8272 45.7227 17.9248 45.6824 17.996 45.6128C18.0672 45.5431 18.1063 45.4498 18.1047 45.353L18.0976 43.9828C18.0976 43.886 18.057 43.7931 17.9847 43.7243C17.9124 43.6556 17.8142 43.6165 17.7115 43.6156L16.0674 43.6246C15.9189 43.6246 15.8999 43.5305 15.9486 43.4432L16.0211 43.3246" fill="white"/>
<path d="M21.0435 43.5368L21.7948 44.9292C22.059 44.4779 22.5085 43.6993 22.6913 43.3619C22.9418 42.9105 23.0069 42.519 22.8942 42.3125C22.7815 42.106 22.2205 41.1062 22.2205 41.1062C22.1983 41.0638 22.1663 41.0261 22.1267 40.9958C22.087 40.9654 22.0405 40.943 21.9905 40.9302C21.9404 40.9174 21.8879 40.9144 21.8364 40.9214C21.7849 40.9284 21.7357 40.9452 21.6921 40.9708L20.4098 41.6975C20.3179 41.7522 20.2518 41.8357 20.2245 41.9319C20.1972 42.0281 20.2106 42.1299 20.2621 42.2177C20.2621 42.2177 20.6515 42.8631 20.8681 43.2242L21.0046 43.4499C21.0204 43.4769 21.0318 43.5058 21.0384 43.5357" fill="white"/>
<path d="M21.7134 45.1404C21.7423 45.0938 21.8088 44.9819 21.8946 44.8334L21.1697 43.4657C21.1854 43.5455 21.142 43.5998 21.0369 43.5998H20.2831V43.1754C20.2831 42.9293 20.1429 42.8495 19.9786 42.9981L19.5111 43.4203L18.9071 43.96L18.4408 44.3768C18.4013 44.4111 18.3698 44.4525 18.3482 44.4985C18.3267 44.5444 18.3156 44.5939 18.3156 44.6438C18.3156 44.6938 18.3267 44.7433 18.3482 44.7892C18.3698 44.8351 18.4013 44.8766 18.4408 44.9109L18.9132 45.321L19.5172 45.8508L19.9895 46.2608C20.1574 46.4071 20.2939 46.324 20.2915 46.078V45.6757H20.8689C21.3944 45.6757 21.5938 45.3232 21.7073 45.1426" fill="white"/>
<path d="M17.86 1.80893C17.7819 1.70561 17.6831 1.61784 17.5691 1.55062C17.4551 1.48341 17.3282 1.43807 17.1957 1.4172C17.0632 1.39633 16.9276 1.40034 16.7967 1.42899C16.6658 1.45765 16.5422 1.51039 16.4329 1.5842L13.481 3.56521C13.3717 3.63897 13.2788 3.73236 13.2077 3.84005C13.1365 3.94775 13.0885 4.06763 13.0664 4.19285C13.0443 4.31806 13.0486 4.44617 13.0789 4.56984C13.1092 4.69351 13.1651 4.81032 13.2432 4.9136L15.064 7.33509C15.4213 7.80683 15.9321 8.15526 16.5185 8.32728C16.4809 8.88773 16.6489 9.44331 16.9942 9.9004L19.8723 13.7276C19.9932 13.8883 20.1768 13.9971 20.3827 14.03C20.5885 14.0629 20.7998 14.0171 20.97 13.9029L24.3 11.6657C24.4701 11.5511 24.5853 11.3776 24.6203 11.183C24.6553 10.9884 24.6072 10.7886 24.4867 10.6274L21.6074 6.7991C21.2637 6.34204 20.764 6.01072 20.1922 5.86084C20.2142 5.27822 20.0328 4.70493 19.676 4.22929L17.86 1.80893Z" fill="#8EC3CB"/>
<path d="M15.3405 1.13147L13.4728 2.39008L14.1154 3.25566L15.9831 1.99705L15.3405 1.13147Z" fill="#8EC3CB"/>
<path d="M14.6706 5.74371e-05L12.5253 1.45206L13.3753 2.59208L15.5206 1.14008L14.6706 5.74371e-05Z" fill="#474EBB"/>
<path d="M21.2223 7.19344L17.4971 9.71478L17.6718 9.94906L21.397 7.42772L21.2223 7.19344Z" fill="#474EBB"/>
<path d="M22.1675 8.46077L18.4422 10.9821L18.6169 11.2164L22.3422 8.69505L22.1675 8.46077Z" fill="#474EBB"/>
<path d="M23.055 9.65023L19.3297 12.1716L19.5044 12.4058L23.2296 9.8845L23.055 9.65023Z" fill="#474EBB"/>
<path d="M8.21027 51.7251V52.35L10.0344 53.1529L10.9471 52.35L10.0344 51.5483H9.91684L9.88777 51.7251H8.21027Z" fill="#1E232D"/>
<path d="M4.11605 51.5483H4.00048L3.15759 52.35L4.00048 53.1529L5.68391 52.35V51.7251H4.1359L4.11605 51.5483Z" fill="#1E232D"/>
<path d="M4.1445 27.5067C4.37361 26.43 4.55208 25.4362 4.56897 24.8973C4.6172 23.2761 4.83788 17.9241 4.83788 17.9241L5.9087 15.876H6.10526H6.06185C6.10887 15.876 6.04014 15.4805 6.02326 15.4458C5.09714 15.4155 3.90453 15.9018 3.32088 16.5774C2.88918 17.077 2.63232 17.6888 2.3815 18.2893C1.67727 19.9811 1.35771 21.5485 1.00559 23.331C0.781299 24.466 0.573888 25.5942 0.411095 26.7202C0.223784 27.9531 0.106651 29.1943 0.0601836 30.4387C0.0601836 30.5754 0.0276249 30.9575 0.0107425 31.4135C-0.0230221 32.3703 -0.000110373 33.6486 0.424359 33.6968C0.504291 33.6986 0.583055 33.6787 0.651065 33.6397C1.19974 33.3887 1.63144 33.0604 2.115 32.7725L2.14033 27.7857L4.1445 27.5067Z" fill="#474EBB"/>
<path d="M13.6689 32.63C13.5621 31.5658 13.4519 30.5017 13.317 29.4398C13.0484 27.3228 12.6836 25.2103 12.0666 23.1607C11.832 22.3742 11.5575 21.6056 11.2865 20.8336C10.9526 19.8957 10.6214 18.9559 10.293 18.0143C9.88125 16.8423 9.18683 16.0231 7.97043 15.6141C7.74835 15.5402 7.52045 15.4834 7.28891 15.4444C7.28288 15.4689 7.27818 15.4937 7.27483 15.5186C7.26745 15.633 7.22682 15.7431 7.15753 15.8366L7.95635 15.8433C7.95635 15.8433 10.2097 23.5147 10.2918 24.8328C10.3235 25.335 10.4279 26.4329 10.5452 27.588L11.7686 27.7644L11.8202 32.185L12.0255 32.2401C12.4138 32.3401 12.7293 32.6165 13.0519 32.8322C13.5281 33.1514 13.7369 33.2817 13.6724 32.6255" fill="#474EBB"/>
<path d="M10.4865 27.6796C10.6745 29.5141 10.8925 31.4962 10.8925 31.4962C10.8925 31.4962 9.88273 31.5188 8.42133 31.6236C8.52913 31.6236 8.63694 31.6213 8.74475 31.6168C9.76174 31.6089 10.8159 32.0213 11.7897 32.2929L11.7358 27.8599L10.4865 27.6796Z" fill="#6A737F"/>
<path d="M3.7294 32.1884C3.0753 32.223 2.99312 32.0974 2.99312 32.0974C2.99312 32.0974 3.58417 29.6269 3.99959 27.4792L2.1285 27.7661L2.10486 32.8947C2.26564 32.7884 2.43215 32.6915 2.60359 32.6044C2.96507 32.4293 3.34205 32.2901 3.7294 32.1884Z" fill="#474EBB"/>
<path d="M11.928 32.1745C10.9577 31.9033 9.9075 31.4907 8.89428 31.4907C8.78687 31.4907 8.67946 31.4929 8.57206 31.4975L8.29637 31.518C7.61731 31.5693 6.85471 31.6388 6.05869 31.7312L5.93935 31.7448C5.24812 31.9033 4.54508 32.0104 3.83653 32.0651C3.42589 32.1656 3.02626 32.3034 2.6431 32.4766C2.46043 32.5625 2.28311 32.6584 2.11202 32.7638L2.10486 33.8181L4.04657 51.7671H5.6386V51.9495H5.64696L7.39772 39.9124L7.40488 39.844L8.35962 51.9495H8.37156V51.7671H9.97076L11.9996 38.2871L11.928 32.1745Z" fill="#3B455A"/>
<path d="M10.5394 27.5999C10.4198 26.4455 10.3134 25.3483 10.2811 24.8464C10.1974 23.5246 7.90026 15.8625 7.90026 15.8625L7.08113 15.8513C7.07249 15.8611 7.06288 15.8701 7.05243 15.8782C7.02734 15.9 6.99757 15.9165 6.96514 15.9265C6.89665 15.9411 6.82555 15.9411 6.75707 15.9265L5.95468 15.8457H5.75976L4.70385 17.8985C4.70385 17.8985 4.48622 23.2573 4.43719 24.8812C4.42045 25.4213 4.24347 26.4174 4.01626 27.4966C3.57501 29.5898 2.9472 31.9975 2.9472 31.9975C2.9472 31.9975 3.0345 32.121 3.72927 32.0862C4.44115 32.0337 5.1476 31.9293 5.84227 31.774L5.96185 31.7605C6.75946 31.6696 7.52358 31.6011 8.204 31.5505L8.48023 31.5303C9.93913 31.4259 10.9472 31.4034 10.9472 31.4034C10.9472 31.4034 10.7272 29.4337 10.5394 27.5999Z" fill="white"/>
<path d="M7.85005 26.2756L8.50302 26.7187L9.20622 26.6082L9.3079 26.7343L9.14496 26.856L9.75751 26.9185L10.1054 27.2511L9.98537 27.8572L9.47206 28.2813L8.83502 28.1072L8.28985 27.577L7.36859 27.0067L7.85005 26.2756Z" fill="#EAC5B0"/>
<path d="M8.42147 26.3675L5.09194 23.7656L4.81969 17.0491L2.16785 19.6567L1.68463 23.9803L2.33639 25.6106L7.96889 27.8802L8.42147 26.3675Z" fill="#474EBB"/>
<path d="M8.53384 10.8558C8.73987 11.2561 8.84148 11.6953 8.83054 12.1383C8.83054 12.2527 8.83054 12.3911 8.92861 12.4655C9.02668 12.5398 8.92861 12.7023 9.01551 12.6073C9.10241 12.5124 9.4016 12.1817 9.42146 12.057C9.46696 11.7654 9.48276 11.4705 9.46864 11.1761C9.45622 10.921 9.41525 10.6521 9.24766 10.4496C9.14164 10.334 9.01584 10.2351 8.87523 10.1568C8.68951 10.0233 8.47926 9.92182 8.25451 9.85703C7.86098 9.76779 7.61021 9.8902 7.94664 10.1671C8.1888 10.3586 8.38824 10.5918 8.53384 10.8535" fill="#3B455A"/>
<path d="M5.97361 15.629L7.49154 15.8455C7.59209 15.4118 7.66038 14.9715 7.69586 14.5281C8.14258 14.4751 8.67126 14.36 8.85018 13.9066C8.89762 13.7606 8.92251 13.6085 8.92406 13.4554C8.96176 12.817 9.00024 12.1778 9.03949 11.5378C9.06599 11.3181 9.0527 11.0955 9.00024 10.8802C8.88481 10.5136 8.55583 10.2813 8.23031 10.1301C7.3992 9.74212 6.40764 9.70489 5.59846 10.155C5.3696 10.2704 5.17665 10.4437 5.03977 10.6569C4.83661 10.9953 4.83661 11.4329 4.84469 11.839C4.85161 12.2146 4.85969 12.5891 4.86662 12.967C4.8747 13.3979 4.91395 13.8964 5.23831 14.1401C5.4103 14.2698 5.64001 14.3036 5.78546 14.4683C6.04172 14.7571 5.89281 15.2398 5.97361 15.6346" fill="#EAC5B0"/>
<path d="M9.26341 13.1814C9.26341 13.0654 9.22535 12.7 9.01785 12.9146C8.96897 12.9776 8.94195 13.0534 8.9405 13.1315C8.93966 13.2101 8.92726 13.2882 8.90367 13.3635C8.86442 13.4394 8.8008 13.5017 8.72188 13.5415C8.64295 13.5813 8.55274 13.5965 8.46412 13.585C8.39424 13.583 8.32612 13.5638 8.26644 13.5294C8.21101 13.4899 8.16324 13.4416 8.12525 13.3867L7.81216 13.0028C7.63167 12.7824 7.24737 12.8543 6.98831 12.874C6.68307 12.8868 6.38781 12.9805 6.13622 13.1443L6.06009 13.1988C6.00156 13.2448 5.93722 13.2837 5.86856 13.3148C5.63282 13.4099 5.35534 13.2846 5.20555 13.0758C5.13679 12.9807 5.07418 12.8589 4.95999 12.8381C4.91385 12.8337 4.86736 12.8423 4.82647 12.863C4.78557 12.8836 4.75212 12.9154 4.73039 12.9541C4.68435 13.0367 4.65756 13.1276 4.65181 13.2208C4.60253 13.5582 4.64478 13.9018 4.77459 14.2195C5.07049 14.8888 5.70895 15.0001 6.35477 15.0175L7.11968 15.0384C7.58747 15.0511 8.08104 15.0569 8.48744 14.8157C8.84596 14.6034 9.0731 14.223 9.17869 13.8182C9.23314 13.6079 9.25954 13.392 9.25727 13.1756L9.26341 13.1814ZM7.51135 14.0223C7.39226 14.0887 7.25831 14.1277 7.12031 14.1362C6.98231 14.1447 6.84414 14.1223 6.71696 14.071C6.60278 14.0316 6.66171 13.8472 6.77713 13.8866C6.88037 13.93 6.9931 13.9493 7.10589 13.9431C7.21868 13.9368 7.32824 13.9051 7.4254 13.8507C7.53222 13.7892 7.61694 13.9666 7.51135 14.0223Z" fill="#3B455A"/>
<path d="M9.43138 9.80662C9.48235 9.65908 9.5217 9.50831 9.54913 9.35551C9.39606 9.39744 9.23399 9.40269 9.07812 9.37077C9.07812 9.28142 9.08754 9.19316 9.09108 9.10381C9.09108 9.0308 8.03132 8.92729 7.95125 8.91639C7.14702 8.81505 6.41225 8.72025 5.65983 9.09182C5.34754 9.23639 5.07615 9.44661 4.86739 9.70563C4.65863 9.96466 4.51828 10.2653 4.45759 10.5835C4.34614 11.2919 4.49368 12.0145 4.87679 12.6364C4.88385 12.4642 4.80143 12.0534 4.85324 11.8911C4.88984 11.7287 4.95593 11.5732 5.0487 11.4313C5.23423 11.149 5.49545 10.9159 5.80702 10.7546C6.30131 10.5098 6.8466 10.366 7.40607 10.3329C7.91357 10.2915 8.52941 10.2599 9.02043 10.4092C9.25593 10.4811 9.29243 10.5399 9.44904 10.3198C9.53964 10.159 9.61832 9.99261 9.68454 9.82187L9.43138 9.80662Z" fill="#3B455A"/>
</svg>
